<?xml version="1.0" encoding="UTF-8"?><svg xmlns="http://www.w3.org/2000/svg" viewBox="0 0 400 400"><g id="a"><g><g><path d="M173.88,74.64c-39.32-8.07-81.99,2.09-113.45,27.01-5.71,4.52-11.09,9.52-15.64,15.21-5.19,6.49-9.26,13.79-13.3,21.05-13.39,24.06-27.22,50.31-23.56,77.59,2.23,16.58,10.75,31.55,19.1,46.04,12.31,21.35,26.36,44.22,49.43,52.88,10.35,3.88,21.6,4.48,32.63,5.03,14.28,.71,28.97,1.37,42.5-3.26,8.04-2.76,15.33-7.28,22.54-11.76,7.54-4.69,15.08-9.38,22.62-14.06,8.07-5.02,16.25-10.13,22.64-17.17,12.18-13.43,16.42-32.59,15.35-50.68s-6.89-35.53-12.67-52.72c-6.16-18.35-12.33-36.69-18.49-55.04-5.49-16.33-12.76-34.6-28.87-40.71" style="fill:#fcee21;"/><path d="M175.08,70.3c-23.45-4.77-47.99-3.49-70.86,3.53-11.45,3.51-22.54,8.44-32.77,14.68s-20.73,14.29-28.71,23.79c-4.4,5.24-8.1,10.98-11.51,16.9s-6.5,11.53-9.6,17.37c-6.22,11.71-12,23.85-15.5,36.68-3.48,12.79-4.41,26.16-1.53,39.16s9.13,24.9,15.63,36.34c11.07,19.48,22.76,40.35,41.74,53.21,4.76,3.22,9.99,5.78,15.45,7.57,6.5,2.14,13.34,3.1,20.13,3.7s13.24,.87,19.85,1.1c6.7,.23,13.42,.24,20.09-.54,7.16-.84,13.96-2.5,20.59-5.34,6-2.58,11.6-5.97,17.14-9.41,5.97-3.71,11.94-7.43,17.91-11.14,5.56-3.46,11.2-6.82,16.56-10.58,5.36-3.76,10.51-7.94,14.65-13.04,3.92-4.82,6.96-10.08,9.34-15.82,4.47-10.78,6.08-22.75,5.6-34.36-.57-13.86-3.93-27.45-8.04-40.64-4.16-13.35-8.8-26.55-13.25-39.8-2.27-6.74-4.53-13.48-6.8-20.23-1.98-5.89-3.87-11.81-6.05-17.63-3.72-9.92-8.32-19.98-15.96-27.54-3.83-3.79-8.3-6.63-13.31-8.56-2.2-.85-5.03,.94-5.54,3.14-.59,2.58,.79,4.63,3.14,5.54,.18,.07,1.27,.54,.22,.07,.21,.09,.42,.19,.63,.28,.57,.26,1.14,.54,1.69,.84,1.05,.56,2.06,1.19,3.04,1.86,.27,.19,1.58,1.19,.72,.5,.48,.39,.96,.78,1.43,1.19,.89,.78,1.74,1.61,2.56,2.47s1.61,1.78,2.35,2.72c.16,.2,.64,.85,.04,.04,.17,.23,.35,.46,.52,.7,.38,.52,.74,1.04,1.1,1.57,1.42,2.1,2.7,4.3,3.87,6.55,.55,1.06,1.08,2.14,1.59,3.23,.26,.55,.51,1.09,.75,1.65,.12,.28,.24,.55,.36,.83,.1,.22,.19,.44,.29,.67-.19-.46-.23-.54-.1-.24,.97,2.34,1.88,4.71,2.74,7.09,2.09,5.81,3.99,11.69,5.96,17.55,4.45,13.25,8.9,26.5,13.36,39.75,4.24,12.61,8.61,25.23,11.33,38.27,1.37,6.57,2.13,11.74,2.38,18.53,.1,2.79,.08,5.59-.08,8.39-.08,1.33-.18,2.66-.32,3.99-.07,.66-.15,1.33-.23,1.99,.12-.94,0-.04-.03,.19-.07,.46-.14,.92-.22,1.38-.46,2.75-1.05,5.48-1.82,8.16-.36,1.27-.76,2.53-1.19,3.78-.22,.62-.44,1.24-.68,1.86-.12,.31-.24,.61-.36,.92-.07,.18-.63,1.47-.23,.56-1.11,2.52-2.35,4.98-3.79,7.32-.68,1.12-1.41,2.21-2.17,3.27-.19,.27-.39,.53-.58,.79-.13,.17-.67,.86-.14,.18-.49,.62-.99,1.23-1.51,1.83-1.98,2.28-4.16,4.39-6.47,6.33-1.17,.99-2.13,1.74-2.86,2.29-1.29,.96-2.6,1.89-3.94,2.8-5.34,3.63-10.89,6.95-16.37,10.36-5.81,3.61-11.61,7.24-17.43,10.84-2.71,1.68-5.44,3.34-8.23,4.89-1.33,.74-2.66,1.45-4.02,2.13-.68,.34-1.36,.67-2.05,.99-.41,.19-.82,.38-1.24,.56-.13,.06-1.3,.55-.59,.26-2.96,1.22-6.02,2.2-9.14,2.93-3.33,.79-5.91,1.18-8.75,1.46-6.45,.64-12.95,.58-19.42,.34s-12.95-.52-19.39-1.1c-1.53-.14-3.06-.3-4.59-.5,.89,.11-.6-.09-.63-.09-.3-.04-.61-.09-.91-.14-.91-.14-1.81-.3-2.72-.47-3.15-.6-6.27-1.39-9.31-2.44-.67-.23-1.34-.48-2.01-.74-.35-.14-.7-.28-1.05-.42,.83,.34,.21,.09,.04,.01-1.25-.57-2.49-1.14-3.7-1.78-2.29-1.21-4.51-2.57-6.63-4.07-.5-.35-1-.72-1.5-1.09-.12-.09-1.1-.85-.27-.19-.19-.15-.39-.3-.58-.46-1.07-.85-2.11-1.73-3.12-2.63-1.96-1.74-3.83-3.59-5.61-5.5s-3.54-3.96-5.2-6.03c-.4-.5-.79-1-1.18-1.5,.63,.81-.15-.2-.23-.3-.19-.25-.39-.51-.58-.77-.81-1.08-1.6-2.17-2.37-3.27-3.12-4.42-6.02-8.99-8.81-13.62-6.21-10.31-12.45-20.77-17.36-31.77-1.04-2.32-2.13-5.04-3.15-8.06s-1.85-5.95-2.49-9c-.32-1.53-.6-3.07-.82-4.61,.03,.2,.09,.78-.01-.14-.05-.44-.1-.89-.15-1.33-.08-.81-.15-1.62-.2-2.44-.2-3.15-.18-6.32,.04-9.48,.1-1.46,.25-2.92,.43-4.37-.02,.2-.12,.8,.02-.11,.06-.44,.13-.87,.2-1.31,.14-.87,.29-1.74,.46-2.6,.58-3.05,1.32-6.07,2.18-9.04s1.88-5.99,2.98-8.93c.53-1.41,1.08-2.81,1.65-4.21,.11-.28,.23-.56,.35-.84,.57-1.37-.34,.77,.25-.6,.36-.83,.72-1.67,1.1-2.5,5.21-11.64,11.43-22.9,17.84-33.92,1.62-2.79,3.31-5.55,5.12-8.23,.86-1.27,1.76-2.52,2.68-3.75,.54-.72,.26-.35,.14-.19,.28-.36,.57-.72,.85-1.07,.56-.69,1.14-1.38,1.72-2.05,4.1-4.72,8.74-8.94,13.64-12.81,.21-.17,.42-.33,.64-.5,1.05-.83-.7,.52,.37-.29,.54-.41,1.08-.81,1.62-1.22,1.2-.88,2.4-1.74,3.63-2.59,2.34-1.61,4.72-3.14,7.16-4.59,4.87-2.91,9.91-5.51,15.1-7.8,.62-.27,1.24-.54,1.86-.8-.79,.33,.04-.01,.23-.09,.31-.13,.62-.26,.94-.38,1.38-.56,2.76-1.09,4.16-1.6,2.66-.98,5.35-1.88,8.07-2.69,5.43-1.63,10.96-2.94,16.55-3.92,1.33-.23,2.66-.44,4-.64,.4-.06,.8-.11,1.2-.17-.18,.02-.88,.11,0,0,.8-.1,1.61-.2,2.41-.29,2.82-.31,5.65-.54,8.48-.67,5.66-.28,11.34-.21,17,.21,1.35,.1,2.69,.22,4.03,.36,.67,.07,1.34,.15,2.01,.23,.4,.05,.8,.1,1.21,.15,.89,.11,.19,.03,0,0,2.81,.4,5.6,.87,8.38,1.44,2.3,.47,4.97-.66,5.54-3.14,.51-2.24-.68-5.03-3.14-5.54h0Z"/></g><g><path d="M68.42,238.25c35.23,.68,70.45,1.36,105.68,2.04,.93,.02,1.92,.05,2.71,.55,.67,.43,1.11,1.15,1.44,1.87,2.11,4.64,.66,10.28-2.34,14.41s-7.33,7.05-11.57,9.89c-5.62,3.77-11.3,7.57-17.58,10.1-14.98,6.04-32.23,4.27-47.27-1.61-7.98-3.12-15.67-7.47-21.33-13.91-6-6.82-9.35-15.58-11.57-24.38" style="fill:#fff;"/><path d="M68.42,242.75c18.28,.35,36.56,.71,54.83,1.06l27.42,.53,13.71,.27,6.98,.14c1.05,.02,2.1,.06,3.14,.06,.07,0,.73,.07,.21-.01-.61-.09,.48,.35,0,0-.12-.09-.35-.18-.49-.25-.34-.18-.21-.36-.04,.09,.07,.18,.26,.8,.02,0,.06,.19,.13,.37,.18,.55,.13,.43,.2,.88,.32,1.31-.02-.06-.06-.77-.03-.24,.01,.19,.03,.38,.05,.58,.03,.52,0,1.03-.01,1.55-.02,.88,.14-.51-.03,.35-.09,.45-.18,.9-.3,1.34s-.27,.88-.41,1.32c-.02,.05-.24,.68-.06,.2s-.13,.29-.17,.37c-.37,.78-.79,1.53-1.27,2.24-.15,.22-.3,.43-.45,.65-.02,.02-.45,.57-.16,.22s-.16,.18-.18,.2c-.23,.26-.46,.53-.7,.79-.62,.67-1.28,1.32-1.96,1.93-.37,.33-.74,.65-1.12,.97-.17,.14-1.15,.93-.59,.49-3.16,2.46-6.59,4.62-9.95,6.8s-7.03,4.38-10.8,6.09c-.27,.12-.55,.25-.82,.37,.09-.04,.52-.21,.04-.02s-.96,.38-1.44,.56c-.96,.36-1.93,.68-2.91,.98-1.88,.57-3.8,1.03-5.73,1.38-.5,.09-1,.17-1.51,.25-.04,0-.75,.11-.27,.04,.53-.08-.37,.05-.48,.06-1.01,.12-2.03,.21-3.05,.28-1.97,.13-3.95,.15-5.92,.09s-4.11-.24-6.16-.48c-.03,0-.75-.1-.28-.04,.52,.07-.39-.06-.5-.08-.44-.07-.88-.14-1.31-.21-1.09-.19-2.18-.4-3.26-.63-3.9-.85-7.72-2-11.45-3.41-.47-.18-.94-.36-1.4-.55-.22-.09-1.41-.58-.65-.26-.89-.38-1.78-.78-2.66-1.19-1.76-.83-3.48-1.73-5.15-2.71s-3.17-1.97-4.66-3.08c-.17-.12-.33-.25-.5-.37,.15,.11,.61,.49-.06-.06-.32-.26-.64-.52-.95-.79-.73-.63-1.44-1.28-2.13-1.95s-1.35-1.38-1.99-2.1c-.28-.32-.56-.64-.83-.97-.18-.22-.36-.44-.53-.66,.29,.37,.11,.14-.07-.1-1.16-1.6-2.23-3.26-3.18-5-.44-.81-.86-1.63-1.26-2.45-.18-.38-.37-.77-.54-1.16-.12-.26-.23-.52-.35-.78-.31-.66,.23,.57-.05-.1-.75-1.85-1.43-3.72-2.04-5.63s-1.1-3.69-1.57-5.55c-.58-2.28-3.26-3.88-5.54-3.14s-3.76,3.09-3.14,5.54c2.08,8.22,5.11,16.51,10.27,23.32,5.25,6.92,12.26,12.05,20.1,15.7,15.9,7.39,34.78,10.68,51.82,5.28,8.62-2.73,16.16-7.73,23.58-12.76,3.57-2.42,7.21-5,10.01-8.31,3.07-3.63,5.05-7.75,5.6-12.49s-1.1-11.25-6.17-12.9c-2.28-.74-4.99-.49-7.36-.53l-7.23-.14c-9.72-.19-19.44-.38-29.16-.56-19.36-.37-38.72-.75-58.07-1.12l-7.23-.14c-2.35-.05-4.61,2.1-4.5,4.5s1.98,4.45,4.5,4.5h0Z"/></g><path d="M80.23,123.74c-1.2,17.8-1.4,35.65-.59,53.48,.11,2.35,1.99,4.61,4.5,4.5,2.35-.11,4.61-1.98,4.5-4.5-.8-17.82-.6-35.68,.59-53.48,.16-2.35-2.18-4.6-4.5-4.5-2.57,.12-4.33,1.98-4.5,4.5h0Z"/><path d="M140.14,118.06c-.41,20.73,1.52,41.49,5.64,61.8,.47,2.31,3.33,3.86,5.54,3.14,2.45-.79,3.65-3.06,3.14-5.54-2.06-10.15-3.38-19.13-4.28-29.2s-1.24-20.13-1.04-30.21c.05-2.35-2.1-4.61-4.5-4.5s-4.45,1.98-4.5,4.5h0Z"/></g></g><g id="b"><g><g><path d="M143.13,226.26c6.18-5.53,12.36-11.06,18.54-16.59,5.31-4.75,10.71-9.61,14.26-15.77,5-8.68,5.84-19.02,7.27-28.92,2.73-18.95,8.01-37.54,15.66-55.11,4.41-10.14,9.79-20.18,18.06-27.55,8.14-7.25,18.54-11.43,28.89-14.95,13.49-4.58,27.3-8.27,41.29-11.02,13.59-2.67,27.51-4.47,41.28-2.96s27.47,6.57,37.46,16.1c7.92,7.55,13.1,17.44,18.14,27.13,4.55,8.74,9.18,17.8,9.84,27.61,.38,5.7-.61,11.39-1.59,17.02-1.7,9.71-3.5,19.71-8.77,28.06-3.05,4.83-7.14,8.92-11.19,12.95-5.3,5.28-10.59,10.55-15.89,15.83-3.49,3.48-7.14,7.06-11.79,8.71-3.99,1.42-8.35,1.29-12.58,1.14-20.43-.72-40.86-1.44-61.29-2.16-17.86-.63-35.73-1.26-53.61-1.27-14.47-.01-29.13,.4-43.02,4.45-11.87,3.46-22.95,9.55-32.2,17.72" style="fill:#fff;"/><path d="M146.31,229.45c4.57-4.09,9.14-8.18,13.72-12.27,4.15-3.72,8.43-7.34,12.31-11.36s7.2-8.42,9.4-13.51,3.52-10.59,4.39-16.15,1.47-10.85,2.41-16.25,2.2-11.25,3.63-16.79,3.09-11.04,4.96-16.46c.95-2.75,1.95-5.47,3.01-8.18,.52-1.32,1.04-2.63,1.58-3.93,.36-.87,.77-1.84,1.36-3.17,2.12-4.82,4.45-9.56,7.24-14.03,.67-1.08,1.38-2.15,2.11-3.19,.32-.46,.65-.92,.99-1.38,.17-.23,.34-.45,.51-.68-.51,.66,.24-.29,.34-.42,1.64-2.03,3.42-3.96,5.35-5.72,.9-.82,1.82-1.61,2.78-2.36-.6,.47,.13-.09,.28-.2,.29-.21,.58-.42,.87-.63,.58-.41,1.17-.81,1.77-1.2,2.16-1.41,4.41-2.67,6.71-3.83,1.16-.58,2.33-1.13,3.51-1.66,.53-.23,1.06-.47,1.59-.69-.72,.3,.15-.06,.32-.13,.4-.16,.8-.33,1.21-.49,2.48-.98,4.99-1.89,7.52-2.76,11.15-3.83,22.51-7.03,34.02-9.6s22.64-4.65,34.53-5c3.01-.09,6.02-.06,9.02,.12,1.46,.09,2.92,.2,4.38,.36,.63,.07,1.26,.14,1.89,.22-.19-.02-.85-.13,.04,.01,.41,.06,.82,.12,1.24,.19,5.01,.81,9.94,2.11,14.67,3.94,.32,.13,.64,.26,.97,.38,.14,.05,.8,.34,.07,.03,.51,.22,1.01,.44,1.52,.67,1.25,.58,2.49,1.2,3.7,1.86,2.17,1.19,4.27,2.51,6.27,3.97,.22,.16,.44,.33,.66,.49-.65-.49,.07,.06,.23,.18,.48,.39,.96,.78,1.43,1.19,1.01,.87,1.98,1.78,2.91,2.73,.86,.87,1.68,1.76,2.48,2.68,.47,.54,.93,1.09,1.38,1.65,.18,.22,.36,.45,.53,.67-.47-.59,.25,.34,.34,.45,3.14,4.22,5.8,8.77,8.3,13.39s5.13,9.58,7.43,14.48c.29,.62,.58,1.24,.86,1.87,.12,.28,.25,.56,.37,.84,.07,.15,.44,1.05,.17,.39,.52,1.26,1.01,2.53,1.45,3.82,.93,2.7,1.65,5.47,2.09,8.3-.13-.82,.1,.89,.11,1.05,.06,.71,.11,1.42,.13,2.13,.05,1.55,.01,3.09-.1,4.64-.22,3.11-.52,4.88-1.06,8.03-.92,5.38-1.83,10.78-3.27,16.05-.68,2.51-1.48,5-2.48,7.4,.3-.72-.07,.14-.15,.31-.12,.26-.24,.52-.36,.78-.28,.59-.57,1.17-.87,1.74-.65,1.23-1.36,2.42-2.14,3.57-.38,.56-.77,1.11-1.17,1.65-.53,.72-.24,.32-.12,.16-.18,.24-.37,.47-.56,.7-.95,1.17-1.94,2.3-2.97,3.4-1.86,2.01-3.82,3.94-5.76,5.88-4.35,4.34-8.71,8.68-13.06,13.02-1.91,1.9-3.79,3.85-5.8,5.64-.47,.42-.96,.84-1.45,1.24-.15,.12-.88,.67-.25,.21-.23,.17-.45,.33-.68,.49-1.1,.76-2.24,1.4-3.44,1.99-.63,.3,.59-.15-.09,.03-.36,.1-.7,.25-1.06,.35-.58,.17-1.16,.32-1.75,.43,.09-.02-1.36,.24-.74,.14,.51-.08-.42,.04-.52,.05-.83,.08-1.66,.12-2.5,.14-2.84,.07-5.69-.1-8.54-.2-12.22-.43-24.45-.86-36.67-1.29-24.56-.86-49.13-1.96-73.71-2.02-11.87-.03-23.78,.25-35.49,2.35-10.87,1.95-21.4,5.81-30.86,11.53-4.62,2.79-8.98,6.04-13.04,9.61-1.77,1.56-1.71,4.79,0,6.36,1.89,1.74,4.47,1.66,6.36,0,.97-.85,1.96-1.69,2.96-2.49,.28-.22,.56-.45,.84-.67,.64-.51-.82,.6,.28-.21,.58-.43,1.15-.86,1.74-1.27,2.16-1.54,4.4-2.98,6.69-4.32s4.66-2.56,7.07-3.67c.59-.27,1.18-.52,1.77-.79,.75-.34-.96,.39,.31-.13,.27-.11,.53-.22,.8-.32,1.33-.53,2.68-1.03,4.04-1.5,11.29-3.86,21.77-4.93,33.57-5.31,12.24-.39,24.51-.11,36.75,.2,12.45,.31,24.9,.78,37.34,1.22s24.95,.88,37.43,1.32c6.09,.21,12.19,.54,18.29,.62,6.1,.08,12.01-.99,17.04-4.62,4.74-3.41,8.72-7.81,12.84-11.91s8.59-8.5,12.83-12.8,8.05-8.55,10.87-13.68c2.73-4.97,4.53-10.42,5.83-15.92s2.24-10.97,3.07-16.48c.96-6.39,1.31-12.63,.05-19.01-1.13-5.73-3.42-11.18-5.93-16.42-2.4-5-4.99-9.93-7.66-14.8-5.37-9.79-11.78-18.86-20.87-25.53-8.43-6.18-18.67-9.97-28.94-11.69-12.35-2.07-24.78-1.41-37.12,.4s-23.65,4.43-35.21,7.64-22.6,6.58-33.13,11.64c-5,2.4-9.7,5.34-13.94,8.92s-7.72,7.81-10.77,12.35c-6.26,9.31-10.59,20-14.39,30.5s-7.08,22.31-9.23,33.81c-1.03,5.52-1.74,11.08-2.54,16.63s-1.72,10.62-3.62,15.65c-.13,.34-.26,.67-.39,1-.3,.76,.45-.92-.14,.31-.25,.52-.49,1.04-.75,1.56-.66,1.29-1.4,2.53-2.21,3.73-.36,.54-.74,1.07-1.13,1.59-.49,.66,.66-.78-.23,.29-.19,.22-.37,.45-.55,.67-.88,1.06-1.81,2.08-2.77,3.07-3.99,4.13-8.4,7.86-12.68,11.69s-8.9,7.96-13.35,11.94c-1.76,1.57-1.72,4.78,0,6.36,1.88,1.72,4.49,1.68,6.36,0h0Z"/></g><path d="M226.23,110.47c3.63-.8,6.27-3.48,8.62-6.17,.51-.59,1.02-1.17,1.56-1.74,.26-.27,.53-.54,.81-.8,.1-.1,.21-.18,.31-.28,.57-.54,.14,.04-.17,.1,.25-.04,.66-.46,.89-.59,.01,0,.44-.2,.47-.25-.04,.09-1.06,.34-.34,.15,.16-.04,.35-.09,.51-.15,.69-.24-.47,.26-.4,.02,.09-.27,1.7,.22,.71-.06,.26,.07,.53,.14,.79,.21,.79,.21,.29,.08,.08,0,.51,.22,1.01,.5,1.49,.78,.99,.56,1.94,1.19,2.93,1.75,2.3,1.32,4.72,2.44,7.2,3.4,4.49,1.73,9.54,2.68,14.35,2.15,5.08-.56,9.68-2.41,14.18-4.77,2.02-1.06,4-2.19,6.02-3.25,.94-.5,1.89-.98,2.85-1.43,.27-.12,.53-.26,.81-.37-.64,.26,.06,0,.16-.04,.28-.09,.56-.19,.84-.27,.1-.03,1.22-.26,.69-.18s.37,0,.49,0c.14,0,.99,.12,.38,0-.56-.11,.07,.03,.15,.06,.24,.07,.48,.14,.72,.22,.8,.25,.14,.06-.02-.02,.23,.12,.46,.23,.68,.35,.51,.28,1.01,.59,1.49,.92,1.78,1.19,3.45,2.54,5.33,3.59,4.38,2.44,9.14,3.72,14.09,4.34,11.34,1.41,22.59-2.01,33.29-5.35,2.24-.7,3.91-3.17,3.14-5.54s-3.13-3.89-5.54-3.14c-4.84,1.51-9.7,3.03-14.66,4.09-1.24,.26-2.48,.5-3.73,.7-.31,.05-.62,.1-.94,.14,.2-.03,.73-.08-.21,.03-.63,.08-1.26,.14-1.89,.2-2.24,.2-4.5,.24-6.75,.11-.56-.03-1.12-.08-1.67-.13-.28-.03-.56-.06-.83-.09,.83,.08,.12,.02-.05,0-1.1-.18-2.19-.38-3.27-.65s-2.14-.59-3.18-.96c-.26-.1-1.57-.64-.85-.31-.57-.26-1.13-.52-1.68-.8-3.92-2.04-7.15-5.62-11.64-6.47-5.46-1.03-10.39,1.96-15.01,4.48-2,1.09-3.99,2.2-6.04,3.18-.51,.24-1.02,.47-1.54,.71-.47,.21,.02-.01,.1-.04-.26,.1-.52,.21-.78,.31-1.11,.42-2.25,.78-3.4,1.06-.55,.13-1.11,.21-1.65,.34-.5,.12,.03,0,.13,0-.29,.04-.57,.06-.86,.09-1.22,.1-2.44,.1-3.66,0-.29-.02-.57-.06-.86-.08-.73-.04,.64,.12-.09,0-.5-.09-1-.17-1.49-.27-1.21-.25-2.4-.58-3.57-.96-.55-.18-1.1-.38-1.65-.59-.1-.04-.94-.37-.48-.18,.41,.17-.25-.11-.27-.12-1.14-.51-2.25-1.06-3.35-1.65-2.11-1.15-4.07-2.52-6.3-3.46-5.05-2.13-9.88-.42-13.54,3.36-1.22,1.26-2.3,2.65-3.53,3.9-.3,.31-.61,.61-.93,.89-.06,.05-.43,.33-.43,.36,0-.18,.89-.59,.13-.13-.17,.1-1,.46-1.07,.61,.04-.1,1.05-.34,.32-.15-.27,.07-.53,.15-.8,.21-2.3,.5-3.86,3.31-3.14,5.54,.78,2.42,3.07,3.68,5.54,3.14h0Z"/><path d="M234.12,157.53c.24-1.01,.52-2,.86-2.98,.16-.46,.33-.91,.49-1.36,.05-.14,.33-.8,.02-.07,.13-.32,.28-.63,.43-.94,.88-1.87,1.93-3.66,3.14-5.34,.07-.09,.58-.78,.27-.37-.28,.37,.14-.17,.16-.2,.35-.43,.7-.85,1.08-1.26,.31-.34,.65-.64,.96-.97,.39-.43-.12,.15-.15,.1,.4-.21,.44-.26,.13-.13-.31,.11-.26,.1,.17-.03-.01,0-.83,.11-.34,.08,.63-.04-.89-.14-.3,0,.47,.1-.37-.15-.38-.16,.73,.33-.07-.15-.14-.18,.3,.11,.61,.56,.82,.8,.1,.11,.58,.66,.2,.2-.42-.49,.2,.28,.27,.39,1.2,1.7,2.3,3.47,3.78,4.95,1.56,1.56,3.42,2.92,5.38,3.93,4.24,2.17,9.01,3.13,13.77,2.9,2.57-.13,5.16-.53,7.66-1.15,2.22-.55,4.35-1.39,6.54-2.02,.57-.16,1.14-.3,1.72-.42,.04,0,.74-.08,.27-.04-.53,.04,.39,0,.5,0,.35,0,1.46,.13,.53-.03,.55,.1,1.1,.22,1.63,.39,.3,.09,1.31,.51,.5,.15,.41,.18,.8,.38,1.2,.58,.92,.48,1.8,1.02,2.68,1.57,3.77,2.36,7.53,4.55,11.99,5.29,4.71,.78,9.35,.51,14.06-.11,1.5-.2,3-.41,4.49-.63,.58-.08,1.16-.17,1.74-.25,.3-.04,.61-.09,.91-.13-.61,.08,.27-.03,.47-.06,2.71-.34,5.43-.59,8.15-.73s5.45-.17,8.17-.04c1.36,.06,2.72,.16,4.07,.3,.32,.03,.64,.07,.95,.1,.2,.02,.72,.09,.23,.02,.79,.11,1.58,.24,2.37,.38,2.31,.41,4.96-.62,5.54-3.14,.5-2.19-.66-5.1-3.14-5.54-10.51-1.84-20.93-1.18-31.43,.35-.58,.08-1.17,.17-1.75,.25-.18,.03-1.8,.25-1.01,.14-1.17,.16-2.35,.29-3.53,.4-2.32,.21-4.66,.29-6.99,.1-.29-.02-.57-.06-.86-.08,.09,0,.66,.11,.13,.02-.56-.1-1.12-.19-1.68-.32-.49-.11-.97-.24-1.45-.39-.27-.08-.55-.17-.82-.27,.02,0-1.08-.43-.67-.25,.43,.19-.29-.15-.39-.19-.23-.11-.46-.23-.69-.35-.4-.21-.8-.44-1.19-.67-.96-.56-1.9-1.17-2.84-1.76-4.25-2.68-8.6-4.59-13.72-3.86-2.38,.34-4.59,1.24-6.88,1.95-1.12,.34-2.25,.64-3.4,.89-.53,.12-1.07,.21-1.61,.31-.91,.17-.4,.07-.19,.04-.38,.05-.77,.09-1.16,.12-1.16,.1-2.33,.14-3.49,.1-.62-.02-1.24-.07-1.86-.14,.17,.02,.67,.12-.11-.02-.32-.06-.63-.12-.94-.18-.94-.2-1.87-.47-2.77-.8-.24-.09-.48-.18-.72-.28,.17,.07,.78,.37,.02-.01-.46-.23-.92-.46-1.36-.71s-.86-.55-1.29-.82c-.15-.09-.68-.51,0,.02-.2-.16-.39-.32-.59-.49-.33-.29-.66-.6-.97-.92-.18-.18-.35-.37-.52-.56-.25-.29-.51-.63-.14-.13-1.26-1.7-2.29-3.59-3.8-5.08-2.17-2.15-5.24-3.29-8.26-2.44-2.79,.79-4.77,3-6.49,5.2-3.39,4.32-5.87,9.24-7.17,14.59-.55,2.28,.72,4.98,3.14,5.54s4.94-.7,5.54-3.14h0Z"/></g><g style="opacity:0;"><path d="M1.45,3c1.93,0,1.93-3,0-3S-.48,3,1.45,3h0Z"/></g><g style="opacity:0;"><path d="M398.39,399.93c1.93,0,1.93-3,0-3s-1.93,3,0,3h0Z"/></g></g></svg>